<svg xmlns="http://www.w3.org/2000/svg" viewBox="0 0 315.101 315.061">
  <defs>
    <linearGradient id="g" x1="0%" y1="0%" x2="100%" y2="100%">
      <stop offset="0%" stop-color="#2DB586"/>
      <stop offset="100%" stop-color="#228CC2"/>
    </linearGradient>
  </defs>
  <g fill="none" stroke="url(#g)" stroke-width="10" stroke-miterlimit="10">
    <line x1="64.867" y1="3" x2="64.867" y2="112.061"/>
    <line x1="188.435" y1="250" x2="188.435" y2="312.061"/>
    <line x1="250.406" y1="123" x2="250.406" y2="312.061"/>
    <line x1="3.041" y1="64.826" x2="62.26" y2="64.826"/>
    <line x1="243.041" y1="126.617" x2="312.26" y2="126.617"/>
    <line x1="252.041" y1="188.426" x2="312.26" y2="188.426"/>
    <line x1="126.599" y1="250.234" x2="312.26" y2="250.234"/>
    <line x1="3.041" y1="250.234" x2="64.121" y2="250.234"/>
    <rect x="3.041" y="3" width="309.061" height="309.061"/>
    <polygon points="125.599 3 312.101 3 312.101 64.826 250.474 127.36 250.474 189.609 128.599 312.061 64.867 312.061 64.867 188.426 3.041 188.426 3.041 125.617 125.599 3"/>
    <polyline points="64.867 66.066 64.867 126.617 126.599 126.617 126.599 250.234 188.435 250.234 188.435 126.617 250.474 126.617 250.474 64.809 64.162 64.809"/>
    <line x1="3.041" y1="188.426" x2="64.867" y2="126.617"/>
    <line x1="64.867" y1="188.426" x2="126.599" y2="126.617"/>
    <line x1="64.867" y1="312.061" x2="126.599" y2="250.234"/>
    <line x1="250.474" y1="64.809" x2="312.101" y2="3"/>
  </g>
</svg>
